<?xml version="1.0" encoding="UTF-8"?>
<svg width="21px" height="20px" viewBox="0 0 21 20" version="1.1" xmlns="http://www.w3.org/2000/svg" xmlns:xlink="http://www.w3.org/1999/xlink">
    <title>中文黑</title>
    <g id="Exchange" stroke="none" stroke-width="1" fill="none" fill-rule="evenodd">
        <g id="Exchange白-单个分析" transform="translate(-1472.000000, -85.000000)" fill="#11142D" fill-rule="nonzero">
            <g id="中文黑" transform="translate(1472.115788, 84.998625)">
                <g id="英文" transform="translate(1.000000, 1.000000)">
                    <path d="M1.32414353,1.32414353 L16.4441435,1.32414353 L16.4441435,16.4441435 L1.32414353,16.4441435 L1.32414353,1.32414353 Z M0.710731483,0 C0.318207811,0 -8.52651283e-13,0.318207811 -8.52651283e-13,0.710731483 L-8.52651283e-13,17.0575556 C-8.52651283e-13,17.4500793 0.318207811,17.7682871 0.710731483,17.7682871 L17.0575556,17.7682871 C17.4500793,17.7682871 17.7682871,17.4500793 17.7682871,17.0575556 L17.7682871,0.710731483 C17.7682871,0.318207811 17.4500793,0 17.0575556,0 L0.710731483,0 Z" id="形状"></path>
                    <path d="M9.42314353,13.5941435 L9.42314353,9.90914353 L12.2941435,9.90914353 L12.2941435,10.5361435 L13.3391435,10.5361435 L13.3391435,5.22314353 L9.42314353,5.22314353 L9.42314353,3.32014353 L8.34514353,3.32014353 L8.34514353,5.22314353 L4.44014353,5.22314353 L4.44014353,10.5361435 L5.48514353,10.5361435 L5.48514353,9.90914353 L8.34514353,9.90914353 L8.34514353,13.5941435 L9.42314353,13.5941435 Z M8.34514353,8.88614353 L5.48514353,8.88614353 L5.48514353,6.24614353 L8.34514353,6.24614353 L8.34514353,8.88614353 Z M12.2941435,8.88614353 L9.42314353,8.88614353 L9.42314353,6.24614353 L12.2941435,6.24614353 L12.2941435,8.88614353 Z" id="中"></path>
                </g>
            </g>
        </g>
    </g>
</svg>