<?xml version="1.0" encoding="UTF-8"?>
<svg width="20px" height="20px" viewBox="0 0 20 20" version="1.1" xmlns="http://www.w3.org/2000/svg" xmlns:xlink="http://www.w3.org/1999/xlink">
    <title>英文黑</title>
    <g id="Exchange" stroke="none" stroke-width="1" fill="none" fill-rule="evenodd">
        <g id="Exchange白-单个分析" transform="translate(-1448.000000, -85.000000)" fill="#11142D" fill-rule="nonzero">
            <g id="英文黑" transform="translate(1448.000000, 84.998625)">
                <g id="英文" transform="translate(1.000000, 1.000000)">
                    <path d="M1.32414353,1.32414353 L16.4441435,1.32414353 L16.4441435,16.4441435 L1.32414353,16.4441435 L1.32414353,1.32414353 Z M0.710731483,0 C0.318207811,0 -8.52651283e-13,0.318207811 -8.52651283e-13,0.710731483 L-8.52651283e-13,17.0575556 C-8.52651283e-13,17.4500793 0.318207811,17.7682871 0.710731483,17.7682871 L17.0575556,17.7682871 C17.4500793,17.7682871 17.7682871,17.4500793 17.7682871,17.0575556 L17.7682871,0.710731483 C17.7682871,0.318207811 17.4500793,0 17.0575556,0 L0.710731483,0 Z" id="形状"></path>
                    <path d="M9.09714353,12.3841435 L9.09714353,11.3611435 L4.46614353,11.3611435 L4.46614353,8.86414353 L8.64614353,8.86414353 L8.64614353,7.84114353 L4.46614353,7.84114353 L4.46614353,5.55314353 L8.91014353,5.55314353 L8.91014353,4.53014353 L3.26714353,4.53014353 L3.26714353,12.3841435 L9.09714353,12.3841435 Z M11.3741435,12.3841435 L11.3741435,8.96314353 C11.4181435,8.50114353 11.5831435,8.13814353 11.8471435,7.87414353 C12.0891435,7.63214353 12.3861435,7.52214353 12.7161435,7.52214353 C13.5961435,7.52214353 14.0471435,8.00614353 14.0471435,8.97414353 L14.0471435,12.3841435 L15.2131435,12.3841435 L15.2131435,8.87514353 C15.2131435,7.31314353 14.4981435,6.54314353 13.0901435,6.54314353 C12.7381435,6.54314353 12.4191435,6.60914353 12.1331435,6.76314353 C11.8471435,6.90614353 11.5941435,7.11514353 11.3741435,7.40114353 L11.3741435,6.69714353 L10.2081435,6.69714353 L10.2081435,12.3841435 L11.3741435,12.3841435 Z" id="En"></path>
                </g>
            </g>
        </g>
    </g>
</svg>