<?xml version="1.0" standalone="no"?><!DOCTYPE svg PUBLIC "-//W3C//DTD SVG 1.1//EN" "http://www.w3.org/Graphics/SVG/1.1/DTD/svg11.dtd"><svg t="1669526042893" class="icon" viewBox="0 0 1024 1024" version="1.1" xmlns="http://www.w3.org/2000/svg" p-id="3781" xmlns:xlink="http://www.w3.org/1999/xlink" width="200" height="200"><path d="M472.5 427.8s48.6-66.4 203.2-16.6 241.9 192.1 240.2 224.9c3.4 42.5 17.9 178.9-163.5 227.4S438 738.3 398.4 647.6s74.1-219.8 74.1-219.8z" fill="#BC2B2B" p-id="3782"></path><path d="M689.8 883.9c-22.5 0-44.9-3.1-66.9-9.3-37.3-10.5-73.6-29.8-108.1-57.4-62.8-50.2-107-118.1-127.4-164.8-10-23-12-49.9-5.9-79.8 4.7-23.1 14.3-48.2 28.5-74.6 22.9-42.5 50-74.1 53.2-77.8 5.6-7.1 60.6-70.5 216.1-20.4 88 28.3 147.7 79.7 182.3 117.7 37.9 41.7 64.5 89.1 66.2 117.9 0.1 1.6 0.2 3.3 0.3 5.1 1.6 24.9 4.5 71.4-16.2 117.6-25.3 56.6-78 95.9-156.5 117-21.9 5.9-43.8 8.8-65.6 8.8zM481.5 435.8c-1.1 1.2-108.2 124.4-72.1 207 30.4 69.7 158.2 257.7 339.8 209.1 165.4-44.3 158.1-160.3 155-209.9-0.1-1.9-0.2-3.6-0.3-5.2-1.1-19.7-22.1-61.5-60-103.1-32.7-35.9-89-84.3-171.9-111-75.3-24.3-123.2-19.4-150-11.1-27.5 8.6-39.1 22.5-39.8 23.4-0.2 0.3-0.4 0.5-0.7 0.8z m-9-8z" p-id="3783"></path><path d="M540.7 190.3s-85-64.2-242.8 45.9c-26.8 21-166.5 195.5-186.8 341.7S185 848.7 338.5 870.4s280.9-199.8 280.9-199.8 162.2-212.9 60.8-359.1c-15.9-16.9-90.3-94.6-139.5-121.2z" fill="#FFFFFF" p-id="3784"></path><path d="M556.6 220.5s-58.5-37.5-164.2 5.3c-48.8 19.8-91.6 51.6-125.3 91.8-54.7 65.3-138 184.7-152.8 290.2C94 753 185 848.9 338.5 870.5s280.9-198.4 280.9-198.4 149.4-189.4 74.3-326.8c-15.9-16.8-79.4-97.3-137.1-124.8z" fill="#C12F2F" p-id="3785"></path><path d="M359.7 883.9c-7.7 0-15.4-0.5-23-1.6-77-10.9-143.3-47.9-186.7-104.1-43-55.9-61.1-127.6-50.8-201.9 7.1-51.6 29-110.7 64.9-175.7 36.5-66 76-117 91.3-135.8 3.6-4.4 7.4-8.7 11.3-12.8 10.7-11.1 19.3-18.8 30.8-27.6 24.6-18.8 51-34 78.3-45 104.1-41.9 163.2-4.8 171.2 0.7 40 21.9 95.1 75.1 124.4 105 25.2 25.7 42.3 57.5 49.4 92 6.7 32.7 6 69-2.2 107.9-6.5 30.7-17.6 63.1-33.1 96.2-24.7 53.1-52.2 90.6-56.3 96-4 6.8-35.2 59.1-84.3 109.8-30.5 31.5-61.6 55.7-92.4 72-31.2 16.6-62.4 24.9-92.8 24.9z m109.2-700.1c-21.8 0-50.1 4.2-84.1 17.9-25.3 10.2-49.7 24.2-72.7 41.8-10.4 8-18.3 15-28.1 25.2-3.5 3.6-6.8 7.4-10 11.2-60.8 75-137 198.5-151 299.7-19.6 141.1 71.8 258.4 217.1 279 6.6 0.9 13.1 1.4 19.6 1.4C495 860 607.8 666.7 609 664.6c0.3-0.4 0.5-0.9 0.9-1.3 0.3-0.4 29.2-38.6 54.3-92.7 22.8-49.1 47.1-121.6 33.3-188.7-6.2-29.9-21.1-57.6-43.1-80-28.6-29.1-82.1-81-119.4-101.1l-1.5-0.9c-0.4-0.3-13.3-9.5-37.6-13.9-7.4-1.2-16.4-2.2-27-2.2z" p-id="3786"></path><path d="M560 301.2c-1.4 0-2.7-0.3-4-0.9-5.1-2.2-7.3-8.1-5.1-13.2 12-27.2 35.6-46.4 68.2-55.6 24-6.8 44.4-5.8 45.2-5.7 5.5 0.3 9.7 5 9.4 10.5-0.3 5.5-5 9.7-10.5 9.4-0.7 0-70.9-3-94.1 49.5-1.6 3.8-5.2 6-9.1 6z" p-id="3787"></path><path d="M577.9 341.2c-2.9 0-5.8-0.3-8.8-0.8-12.7-2.3-25.6-9.2-36.3-19.5-10.7-10.3-18.2-22.8-21.1-35.4-3.1-13.9-0.3-26.7 7.9-35.2 3.8-4 10.1-4.1 14.1-0.3s4.1 10.1 0.3 14.1c-4.7 4.9-3.8 12.8-2.9 17 2 8.7 7.6 17.9 15.4 25.4 7.8 7.5 17.3 12.7 26 14.3 4.3 0.8 12.1 1.3 16.8-3.6 3.8-4 10.1-4.1 14.1-0.3s4.1 10.1 0.3 14.1c-6.1 6.7-15.3 10.2-25.8 10.2zM814.9 780.9c-1.4 0-2.9-0.1-4.5-0.4-5.4-1-9-6.2-8-11.6 1-5.4 6.2-9 11.6-8 0.9 0.2 2 0.4 3.8-2 1.5-2 2.4-4.6 2.6-5.4 1.3-5.4 6.8-8.6 12.1-7.2 5.4 1.3 8.6 6.8 7.3 12.2-2.9 11.2-11.7 22.4-24.9 22.4zM331 820.7c-15.3 0-32.9-13.5-37.8-18.7-3.8-4-3.6-10.3 0.4-14.1 4-3.8 10.3-3.6 14.1 0.4 4.3 4.5 17.6 12.9 23.6 12.4 5.5-0.4 10.3 3.7 10.8 9.2s-3.7 10.3-9.2 10.8H331zM368.9 823.8h-2.5c-5.5-0.1-9.9-4.7-9.8-10.2 0.1-5.5 4.7-9.9 10.2-9.8h2.1c61.7 0 116.4-64.4 117-65.1 3.5-4.2 9.9-4.8 14.1-1.2 4.2 3.5 4.8 9.9 1.2 14.1-2.5 2.9-61.4 72.2-132.3 72.2z" p-id="3788"></path></svg>