<?xml version="1.0" standalone="no"?><!DOCTYPE svg PUBLIC "-//W3C//DTD SVG 1.1//EN" "http://www.w3.org/Graphics/SVG/1.1/DTD/svg11.dtd"><svg t="1669526009094" class="icon" viewBox="0 0 1024 1024" version="1.1" xmlns="http://www.w3.org/2000/svg" p-id="2842" xmlns:xlink="http://www.w3.org/1999/xlink" width="200" height="200"><path d="M352.764 725.16c0.119 156.85-155.595 203.778-155.56 250.833-0.036-47.055-155.821-94.237-155.94-251.087C40.991 364.15 196.539 97.632 196.539 97.632S352.491 364.405 352.764 725.16z" fill="#419646" p-id="2843"></path><path d="M362.028 725.167c0.035 46.247-12.861 87.195-39.424 125.182-22.557 32.258-51.131 56.645-74.09 76.239-23.496 20.053-42.056 35.892-42.045 49.412l-18.528-0.015c-0.01-13.519-18.594-29.389-42.12-49.481-22.989-19.632-51.6-44.065-74.206-76.36C44.993 812.113 32.035 771.145 32 724.898c-0.063-82.694 8.1-167.285 24.262-251.425 12.927-67.3 30.973-134.468 53.636-199.639 38.626-111.07 77.912-178.903 78.304-179.575L196.525 80l8.343 14.272c0.393 0.673 39.782 68.571 78.577 179.704 22.762 65.207 40.91 132.405 53.939 199.727 16.29 84.166 24.581 168.77 24.644 251.464zM197.187 952.465c8.563-11.478 22.322-23.22 38.049-36.641 45.721-39.021 108.339-92.463 108.265-190.672-0.14-185.279-42.338-345.083-77.714-446.517-27.733-79.524-55.714-136.569-69.234-162.321-13.481 25.73-41.375 82.729-68.988 162.208-35.222 101.376-77.177 261.111-77.037 446.39 0.074 98.209 62.774 151.753 108.554 190.849 15.747 13.448 29.524 25.212 38.105 36.704z" fill="#286432" p-id="2844"></path><path d="M248.718 877.34c8.347-16.661 15.417-33.789 20.853-51.278a321.004 321.004 0 0 0 11.74-53.239c2.413-17.938 3.343-36.02 3.074-54.036l-0.269-27-0.61-26.996a2590.894 2590.894 0 0 0-5.264-107.904 2612.711 2612.711 0 0 0-23.99-215.021c-2.791-17.849-5.681-35.687-8.861-53.49a2181.856 2181.856 0 0 0-10.063-53.342c-3.568-17.752-7.351-35.475-11.411-53.154-4.078-17.675-8.333-35.326-13.196-52.866 4.77 17.556 8.931 35.221 12.916 52.909 3.967 17.692 7.655 35.425 11.129 53.187 3.48 17.761 6.747 35.55 9.779 53.367 3.085 17.81 5.88 35.654 8.576 53.507 10.588 71.431 18.218 143.157 22.844 215.007a2589.23 2589.23 0 0 1 4.691 107.846l0.467 26.975 0.126 26.977c0.171 17.964-0.856 35.896-3.35 53.706a318.828 318.828 0 0 1-11.94 52.776c-5.486 17.32-12.587 34.268-20.961 50.769-8.333 16.527-18.091 32.518-27.85 48.578-2.91 4.845-5.826 9.701-8.582 14.639 1.329-3.937 2.707-7.87 4.072-11.81 5.643-16.098 11.003-32.335 15.228-48.786 8.538-32.893 12.925-66.487 13.866-100.086 0.54-16.815 0.025-33.586-0.112-50.363l-0.337-25.165-0.712-25.159-0.712-25.159-1.042-25.151-1.074-25.149c-0.329-8.384-0.894-16.76-1.33-25.14-3.62-67.038-8.819-134.013-15.289-200.898-3.187-33.446-6.831-66.862-10.705-100.257-3.896-33.394-8.127-66.762-12.937-100.074 4.628 33.329 8.675 66.711 12.388 100.117 3.691 33.407 7.151 66.832 10.154 100.285 6.103 66.899 10.933 133.877 14.184 200.904 0.389 8.379 0.909 16.754 1.191 25.135l0.936 25.142 0.904 25.142 0.574 25.148 0.574 25.147 0.198 25.15c0.046 16.765 0.472 33.545-0.181 50.263-1.155 33.451-5.736 66.821-14.428 99.457-4.305 16.329-9.729 32.426-15.473 48.488-2.339 6.617-4.711 13.24-6.851 19.947L196.55 113.38l-0.301 65.188c-4.612 32.47-8.688 64.994-12.438 97.542-3.823 33.389-7.416 66.799-10.553 100.24-6.369 66.875-11.466 133.841-14.984 200.874-0.423 8.38-0.976 16.755-1.291 25.138l-1.036 25.147-1.004 25.149-0.674 25.158-0.674 25.158-0.298 25.164c-0.112 16.776-0.601 33.546-0.036 50.363 0.992 33.6 5.43 67.201 14.018 100.109 4.25 16.458 9.634 32.704 15.301 48.811 1.371 3.942 2.755 7.878 4.09 11.817-2.773-4.959-5.706-9.836-8.634-14.702-9.793-16.092-19.584-32.116-27.944-48.675-8.404-16.532-15.526-33.512-21.038-50.86a319.683 319.683 0 0 1-12-52.854c-2.513-17.834-3.555-35.785-3.4-53.769l0.087-27.004 0.421-27.002c0.754-36 2.249-71.991 4.485-107.949 4.47-71.918 11.903-143.71 22.248-215.21 2.638-17.87 5.367-35.731 8.386-53.56a2207.575 2207.575 0 0 1 9.57-53.422c3.401-17.78 7.012-35.534 10.897-53.246 3.902-17.709 7.979-35.394 12.654-52.975-4.768 17.563-8.938 35.235-12.934 52.931-3.979 17.7-7.684 35.442-11.179 53.213a2207.717 2207.717 0 0 0-9.853 53.398c-3.114 17.821-5.938 35.677-8.671 53.543-10.726 71.484-18.541 143.279-23.393 215.223a2626.432 2626.432 0 0 0-5.057 108.006l-0.563 27.022-0.229 27.026c-0.253 18.033 0.692 36.135 3.124 54.096a321.675 321.675 0 0 0 11.8 53.317c5.462 17.516 12.553 34.677 20.931 51.37 8.33 16.716 18.104 32.891 27.788 48.989 3.925 6.597 7.84 13.193 11.312 19.903-4.823-6.139-10.077-11.976-15.357-17.762-12.998-14.117-26.21-28.003-38.146-42.641-11.979-14.597-22.742-29.883-31.643-45.907-8.915-16.013-15.892-32.766-20.747-49.942-4.821-17.184-7.519-34.773-8.229-52.418-0.37-8.81-0.126-17.691-0.122-26.55l0.076-13.294 0.31-13.291a1723.85 1723.85 0 0 1 5.621-106.237 1711.161 1711.161 0 0 1 31.083-211.039 1556.332 1556.332 0 0 1 25.734-104.168c4.902-17.251 10.133-34.439 15.78-51.533 5.677-17.085 11.608-34.12 18.433-50.915-6.914 16.77-12.938 33.785-18.708 50.852-5.74 17.075-11.065 34.247-16.061 51.485a1559.335 1559.335 0 0 0-26.304 104.111A1713.715 1713.715 0 0 0 74.96 577.865a1727.068 1727.068 0 0 0-6.198 106.324l-0.381 13.305-0.147 13.309c-0.052 8.875-0.344 17.733-0.022 26.652 0.617 17.807 3.241 35.588 8.019 52.982 4.811 17.386 11.776 34.365 20.702 50.594 8.91 16.24 19.706 31.731 31.7 46.493 11.947 14.799 25.166 28.824 38.034 42.936 6.396 7.073 12.724 14.187 18.148 21.676 2.712 3.74 5.12 7.604 7.002 11.59 0.28 0.628 0.547 1.26 0.805 1.893l-0.048 10.37 2.316 0.002 0.885 0.001 3.747 0.003 0.885 0.001 1.431 0.001-0.049-8.021c0.472-1.427 1.05-2.84 1.674-4.242 1.875-3.984 4.278-7.845 6.986-11.581 5.414-7.481 11.733-14.586 18.119-21.65 12.849-14.094 26.049-28.099 37.975-42.882 11.974-14.745 22.746-30.223 31.631-46.451 8.901-16.218 15.84-33.189 20.622-50.571 4.75-17.39 7.344-35.17 7.931-52.979 0.307-8.921 0-17.78-0.066-26.657l-0.169-13.312-0.406-13.308a1712.147 1712.147 0 0 0-6.418-106.35 1701.682 1701.682 0 0 0-32.851-211.124 1550.31 1550.31 0 0 0-26.693-104.132c-5.066-17.24-10.462-34.414-16.277-51.491-5.847-17.066-11.947-34.082-18.943-50.851 6.906 16.794 12.914 33.83 18.666 50.915 5.721 17.095 11.025 34.284 15.996 51.538a1547.891 1547.891 0 0 1 26.124 104.189 1699.492 1699.492 0 0 1 31.696 211.094 1710.304 1710.304 0 0 1 5.841 106.261l0.334 13.294 0.097 13.296c0.018 8.86 0.277 17.743-0.078 26.555-0.68 17.647-3.349 35.235-8.142 52.414-4.826 17.172-11.777 33.917-20.667 49.919-8.876 16.013-19.616 31.285-31.575 45.865-11.915 14.621-25.108 28.489-38.086 42.587-5.274 5.78-10.522 11.611-15.337 17.745 3.453-6.687 7.348-13.262 11.253-19.836 9.649-16.066 19.389-32.208 27.692-48.891z m-62.005 49.079c-5.768-16.072-11.216-32.177-15.546-48.514-8.742-32.65-13.374-66.027-14.579-99.481-0.679-16.719-0.278-33.498-0.258-50.263l0.16-25.15 0.536-25.147 0.536-25.147 0.866-25.141 0.898-25.141c0.27-8.381 0.777-16.755 1.153-25.133 3.15-67.021 7.879-133.991 13.88-200.881 2.953-33.448 6.362-66.867 10.002-100.268 3.566-32.525 7.46-65.026 11.888-97.478l-3.528 764.994c-1.913-5.787-3.976-11.52-6.008-17.25z" fill="#C8E678" p-id="2845"></path><path d="M467.935 785.26c-67.683 158.396-251.27 136.047-271.575 183.566 20.305-47.519-122.672-164.906-54.988-323.302C297.043 281.212 575.386 81.806 575.386 81.806s48.22 339.142-107.451 703.454z" fill="#419646" p-id="2846"></path><path d="M477.647 789.416c-19.956 46.703-51.182 82.266-95.462 108.721-37.602 22.465-78.11 34.289-110.658 43.79-33.31 9.723-59.621 17.403-65.455 31.056l-19.424-8.311c5.834-13.653-6.794-37.995-22.781-68.812-15.622-30.113-35.063-67.589-44.809-110.314-11.476-50.313-7.354-97.473 12.602-144.177 35.684-83.51 80.814-165.251 134.138-242.955 42.651-62.152 90.614-121.88 142.555-177.523 88.524-94.832 159.049-145.72 159.751-146.223L582.995 64l2.58 18.144c0.122 0.855 12.076 87.037 4.716 216.598-4.319 76.02-14.337 151.984-29.777 225.78-19.303 92.262-47.183 181.384-82.867 264.894zM206.513 945.067c13.942-7.753 33.448-13.446 55.742-19.953 64.818-18.92 153.589-44.832 195.968-144.01 79.951-187.106 104.782-367.326 111.535-485.565 5.295-92.699 0.612-162.816-2.433-194.866-25.26 19.938-79.155 64.99-142.472 132.861-80.763 86.57-193.817 229.039-273.768 416.145-42.379 99.178 0.227 181.306 31.336 241.273 10.699 20.626 20.062 38.671 24.092 54.115z" fill="#286432" p-id="2847"></path><path d="M293.032 892.3c15.957-13.082 30.776-27.208 44.036-42.429a341.611 341.611 0 0 0 35.328-48.489c10.285-17.029 19.077-34.866 26.583-53.174l11.39-27.377 11.03-27.526a2741.694 2741.694 0 0 0 41.128-111.288c25.82-74.804 48.427-150.804 67.798-227.81 4.789-19.268 9.47-38.57 13.832-57.967a2311.034 2311.034 0 0 0 12.507-58.356c3.932-19.519 7.628-39.104 11.012-58.77 3.364-19.67 6.533-39.394 9.016-59.277-2.588 19.859-5.86 39.556-9.328 59.196-3.489 19.636-7.287 39.19-11.323 58.676a2314.418 2314.418 0 0 1-12.815 58.254c-4.464 19.361-9.247 38.626-14.137 57.856-19.776 76.852-42.783 152.677-68.993 227.283a2736.39 2736.39 0 0 1-41.704 110.973l-11.172 27.441-11.53 27.29c-7.586 18.212-16.416 35.854-26.731 52.718a339.434 339.434 0 0 1-35.337 47.932c-13.241 15.029-28.014 28.958-43.93 41.866-15.884 12.953-33.03 24.727-50.207 36.571-5.147 3.588-10.303 7.185-15.328 10.935 3.096-3.379 6.241-6.733 9.376-10.099 12.877-13.724 25.517-27.716 37.06-42.432 23.174-29.383 42.298-61.333 57.81-94.83 7.836-16.734 14.546-33.894 21.655-50.892l10.526-25.555 10.13-25.718 10.129-25.717 9.78-25.857 9.746-25.869c3.28-8.611 6.308-17.32 9.474-25.975 25.185-69.297 48.687-139.237 70.817-209.657 11.117-35.192 21.742-70.557 32.116-106.005 10.35-35.456 20.339-71.037 29.695-106.82-9.555 35.719-19.742 71.231-30.29 106.617-10.572 35.378-21.393 70.67-32.705 105.786-22.521 70.268-46.411 140.047-71.977 209.167-3.214 8.633-6.29 17.32-9.617 25.908l-9.888 25.801-9.921 25.787-10.27 25.645-10.269 25.644-10.665 25.479c-7.2 16.945-14.007 34.076-21.919 50.66-15.672 33.253-34.903 64.889-58.127 93.943-11.574 14.557-24.221 28.379-37.189 42.022-5.313 5.633-10.664 11.257-15.808 17.07l354.763-843.22-28.497 65.674c-18.874 30.714-37.209 61.722-55.212 92.902-18.444 31.995-36.655 64.114-54.402 96.469-35.59 64.66-69.885 129.981-102.554 196.076-4.066 8.27-8.266 16.478-12.222 24.799l-11.958 24.923-11.925 24.939-11.583 25.095-11.583 25.096-11.192 25.27c-7.37 16.886-15.133 33.596-21.81 50.826-13.485 34.364-23.357 70.273-28.577 107.339-2.658 18.518-4.035 37.329-5.055 56.127-0.266 4.594-0.517 9.187-0.819 13.761-0.764-6.247-1.732-12.484-2.699-18.708-3.313-20.63-6.654-41.19-8.263-61.651-1.667-20.453-1.794-40.783-0.076-60.765a339.772 339.772 0 0 1 10.265-58.73c5.074-19.129 11.742-37.718 19.679-55.803l11.765-27.222 12.114-27.071a2777.305 2777.305 0 0 1 51.371-106.969c35.779-70.601 74.61-139.748 116.37-207.297 10.492-16.859 21.076-33.668 31.949-50.314a2344.887 2344.887 0 0 1 33.131-49.646c11.253-16.427 22.715-32.732 34.447-48.873 11.748-16.13 23.669-32.159 36.172-47.813-12.593 15.595-24.606 31.568-36.447 47.643-11.824 16.087-23.38 32.339-34.729 48.714a2350.922 2350.922 0 0 0-33.418 49.494c-10.97 16.597-21.651 33.358-32.241 50.17-42.152 67.362-81.385 136.341-117.576 206.797a2779.887 2779.887 0 0 0-51.995 106.769l-12.273 27.027-11.924 27.181c-8.061 18.091-14.896 36.789-20.11 56.01a341.963 341.963 0 0 0-10.675 59.108c-1.844 20.129-1.826 40.628-0.257 61.231 1.51 20.605 4.766 41.31 7.963 61.898 1.265 8.417 2.518 16.83 3.259 25.157-2.404-8.357-5.39-16.602-8.427-24.807-7.528-20.071-15.38-40.006-21.569-60.128-6.252-20.1-10.932-40.351-13.339-60.513-2.427-20.158-2.501-40.194-0.167-59.708 2.373-19.506 7.148-38.47 14.031-56.602 3.421-9.06 7.516-17.916 11.35-26.857l5.826-13.386 6.071-13.279A1824.806 1824.806 0 0 1 242.6 513.333a1815.415 1815.415 0 0 1 123.831-199.131 1658.29 1658.29 0 0 1 72.021-93.637c12.599-15.221 25.516-30.23 38.827-44.957 13.34-14.705 26.924-29.247 41.342-43.146-14.501 13.833-28.174 28.314-41.603 42.959-13.401 14.668-26.409 29.619-39.101 44.784a1660.753 1660.753 0 0 0-72.593 93.324 1818.312 1818.312 0 0 0-125.055 198.642 1827.277 1827.277 0 0 0-52.465 104.561l-6.152 13.261-5.908 13.37c-3.891 8.937-8.027 17.748-11.545 26.896-7.051 18.253-11.986 37.378-14.495 57.077-2.47 19.706-2.506 39.965-0.161 60.345 2.324 20.384 6.948 40.857 13.145 61.13 6.132 20.289 13.931 40.367 21.325 60.375 3.649 10.004 7.211 20.019 9.661 30.008 1.228 4.99 2.083 9.969 2.332 14.836 0.022 0.76 0.029 1.517 0.026 2.271l-4.533 10.448 2.428 1.039 0.928 0.397 3.928 1.681 0.928 0.397 1.5 0.642 3.416-8.12c1.112-1.229 2.329-2.397 3.589-3.532 3.689-3.182 7.878-6.004 12.332-8.563 8.912-5.129 18.61-9.471 28.361-13.743 19.567-8.475 39.465-16.703 58.362-26.286 18.931-9.524 36.92-20.325 53.253-32.73 16.346-12.387 30.959-26.413 43.488-41.819 12.499-15.428 22.906-32.216 31.221-49.932 4.178-8.868 7.686-17.949 11.455-26.94l5.578-13.514 5.328-13.617a1811.819 1811.819 0 0 0 39.246-110.236 1804.171 1804.171 0 0 0 56.82-227.844 1650.82 1650.82 0 0 0 17.024-117.076c2.141-19.673 3.906-39.427 5.19-59.269 1.249-19.847 2.208-39.756 2.12-59.817-0.018 20.046-1.082 39.934-2.436 59.758-1.39 19.819-3.26 39.547-5.505 59.192a1646.7 1646.7 0 0 1-17.645 116.878 1801.343 1801.343 0 0 1-58.018 227.296 1809.338 1809.338 0 0 1-39.812 109.888l-5.397 13.57-5.646 13.466c-3.811 8.952-7.38 18.036-11.561 26.773-8.343 17.51-18.744 34.071-31.198 49.268-12.485 15.175-27.013 28.967-43.255 41.14-16.231 12.191-34.096 22.799-52.941 32.163-18.816 9.425-38.647 17.517-58.352 25.938-8.03 3.474-16.054 7.01-23.755 11.046 6.512-5.205 13.439-10.098 20.377-14.986 17.07-11.898 34.262-23.833 50.182-36.957z m-86.243 21.783c0.899-18.807 2.148-37.506 4.669-55.937 4.947-36.875 14.519-72.644 27.717-106.956 6.516-17.182 14.19-33.942 21.459-50.857l11.041-25.317 11.433-25.146 11.434-25.147 11.777-24.992 11.81-24.978c3.906-8.34 8.058-16.567 12.075-24.856 32.277-66.249 66.188-131.739 101.399-196.578 17.557-32.444 35.579-64.655 53.836-96.744 17.801-31.237 35.935-62.305 54.608-93.083L205.633 934.189c0.495-6.7 0.811-13.411 1.156-20.106z" fill="#C8E678" p-id="2848"></path><path d="M556.519 887.273c-141.329 141.396-329.452 38.022-371.851 80.441 42.399-42.419-60.926-230.631 80.403-372.027 325.058-325.212 711.042-419.793 711.042-419.793s-94.537 386.168-419.594 711.379z" fill="#419646" p-id="2849"></path><path d="M565.186 895.945c-41.671 41.691-90.671 66.513-149.799 75.885-50.211 7.958-98.957 3.199-138.125-0.626-40.084-3.914-71.746-7.005-83.927 5.182L176 959.043c12.182-12.187 9.092-43.864 5.179-83.967-3.823-39.186-8.58-87.955-0.626-138.19 9.368-59.156 34.178-108.179 75.849-149.87 74.512-74.547 158.436-143.109 249.443-203.782 72.793-48.53 150.26-92.154 230.249-129.66 136.326-63.92 234.281-88.277 235.255-88.515L992 160l-5.057 20.66c-0.238 0.974-24.584 98.976-88.473 235.366-37.488 80.027-81.091 157.53-129.598 230.358-60.645 91.051-129.174 175.014-203.686 249.561z m-359.319 50.56c18.369-2.33 41.84-0.037 68.668 2.583 78 7.615 184.824 18.047 273.315-70.487 166.945-167.024 271.538-350.44 329.882-474.895 45.743-97.572 70.983-175.128 81.546-210.97-35.825 10.568-113.344 35.82-210.87 81.584-124.396 58.372-307.725 163.013-474.67 330.038-88.491 88.533-78.065 195.408-70.453 273.445 2.619 26.842 4.911 50.325 2.582 68.702z" fill="#286432" p-id="2850"></path><path d="M321.864 927.034c22.84-7.2 44.906-16.016 65.766-26.685a396.447 396.447 0 0 0 59.002-36.975c18.435-13.901 35.611-29.319 51.605-45.799l24.095-24.572 23.772-24.888a3178.814 3178.814 0 0 0 92.374-102.12c60.125-69.429 117.306-141.535 171.434-216.122 13.482-18.688 26.861-37.459 39.938-56.47a2683.765 2683.765 0 0 0 38.679-57.461c12.667-19.328 25.107-38.83 37.247-58.552 12.12-19.736 24.053-39.615 35.316-59.962-11.365 20.275-23.398 40.08-35.618 59.739-12.24 19.646-24.778 39.07-37.541 58.318a2683.31 2683.31 0 0 1-38.967 57.218c-13.172 18.929-26.645 37.616-40.219 56.219-54.499 74.246-112.034 145.99-172.494 215.038a3177.943 3177.943 0 0 1-92.858 101.531l-23.888 24.736-24.207 24.417c-16.039 16.341-33.171 31.533-51.567 45.244a393.86 393.86 0 0 1-58.771 36.37c-20.756 10.47-42.687 19.095-65.408 26.125-22.707 7.093-46.264 12.37-69.883 17.709-7.094 1.642-14.203 3.289-21.236 5.159 4.794-2.303 9.632-4.557 14.463-6.829 19.8-9.222 39.461-18.835 58.252-29.702 37.657-21.643 72.058-47.8 103.237-77.184 15.669-14.642 30.31-30.229 45.31-45.47l22.377-22.983 22.021-23.329 22.02-23.328 21.704-23.63 21.673-23.658c7.253-7.859 14.276-15.933 21.425-23.889 57.063-63.772 112.59-128.962 166.846-195.262 27.176-33.109 53.897-66.616 80.384-100.321 26.465-33.724 52.594-67.738 78.129-102.244-25.721 34.351-52.034 68.206-78.681 101.769-26.669 33.544-53.57 66.888-80.924 99.831-54.613 65.968-110.487 130.818-167.885 194.234-7.191 7.911-14.257 15.941-21.551 23.755l-21.796 23.523-21.826 23.493-22.14 23.19-22.139 23.189-22.494 22.84c-15.075 15.144-29.808 30.658-45.495 45.105-31.246 29.052-65.628 54.825-103.196 76.092-18.756 10.682-38.351 20.109-58.213 29.204-8.157 3.773-16.35 7.52-24.402 11.56L961.923 190.09l-59.065 58.438c-33.599 24.934-66.744 50.418-99.606 76.23-33.689 26.5-67.181 53.233-100.274 80.422-66.269 54.282-131.429 109.835-195.17 166.925-7.952 7.153-16.022 14.18-23.878 21.436l-23.647 21.683-23.619 21.714-23.317 22.03L390.03 681l-22.972 22.388c-15.233 15.007-30.814 29.655-45.448 45.332-29.37 31.194-55.515 65.612-77.148 103.286-10.862 18.8-20.47 38.47-29.688 58.279-2.271 4.833-4.525 9.673-6.826 14.47 1.875-7.06 3.527-14.197 5.173-21.318 5.342-23.655 10.623-47.246 17.727-69.982 7.039-22.753 15.682-44.708 26.164-65.491a394.22 394.22 0 0 1 36.425-58.832c13.729-18.415 28.941-35.56 45.302-51.613l24.432-24.243 24.743-23.929a3224.255 3224.255 0 0 1 101.543-93.043c69.038-60.6 140.737-118.315 214.9-173.044 18.584-13.629 37.247-27.165 56.151-40.401a2719.241 2719.241 0 0 1 57.135-39.17c19.218-12.835 38.609-25.449 58.219-37.77 19.623-12.301 39.389-24.419 59.619-35.882-20.302 11.361-40.143 23.379-59.842 35.581-19.686 12.222-39.155 24.738-58.453 37.476a2723.462 2723.462 0 0 0-57.378 38.883c-18.987 13.14-37.733 26.583-56.402 40.119-74.505 54.358-146.564 111.719-215.984 171.985a3224.833 3224.833 0 0 0-102.13 92.558l-24.895 23.813-24.586 24.13c-16.498 16.007-31.937 33.197-45.856 51.65a396.806 396.806 0 0 0-37.03 59.063c-10.681 20.887-19.516 42.977-26.724 65.849-7.273 22.848-12.708 46.56-18.157 70.118-2.273 9.614-4.556 19.217-7.355 28.508 1.02-10.041 1.364-20.212 1.637-30.363 0.559-24.873 0.711-49.739 2.734-74.089 1.946-24.353 5.652-48.189 11.767-70.949 6.092-22.763 14.666-44.379 25.609-64.392 10.982-19.988 24.316-38.354 39.563-54.913 7.598-8.282 15.835-16.054 23.828-24.029l12.058-11.904 12.275-11.682a2118.691 2118.691 0 0 1 101.063-90.437 2106.888 2106.888 0 0 1 219.411-161.024 1924.273 1924.273 0 0 1 118.031-69.761c20.147-10.954 40.544-21.544 61.246-31.659 20.722-10.079 41.638-19.876 63.173-28.622-21.597 8.638-42.581 18.332-63.373 28.307-20.772 10.012-41.243 20.5-61.466 31.354a1928.353 1928.353 0 0 0-118.513 69.177 2110.362 2110.362 0 0 0-220.518 159.969 2120.84 2120.84 0 0 0-101.682 89.976l-12.355 11.628-12.139 11.85c-8.052 7.946-16.313 15.651-24.054 23.987-15.48 16.617-29.057 35.088-40.268 55.225-11.173 20.161-19.962 41.97-26.238 64.937-6.301 22.962-10.162 47.014-12.243 71.53-2.158 24.505-2.427 49.502-3.104 74.25-0.389 12.353-0.878 24.68-2.553 36.499-0.833 5.906-2.063 11.639-3.896 16.989a79.634 79.634 0 0 1-0.953 2.458l-9.396 9.297 2.167 2.168 0.828 0.828 3.506 3.508 0.828 0.828 1.339 1.34 7.187-7.271c1.729-0.844 3.544-1.576 5.392-2.255 5.349-1.834 11.08-3.065 16.984-3.898 11.816-1.675 24.14-2.164 36.489-2.554 24.74-0.677 49.73-0.947 74.227-3.107 24.508-2.083 48.552-5.948 71.506-12.256 22.959-6.283 44.76-15.08 64.912-26.264 20.129-11.222 38.591-24.811 55.2-40.303 8.332-7.748 16.033-16.016 23.976-24.073l11.846-12.148 11.621-12.367a2102.378 2102.378 0 0 0 89.892-101.799 2093.882 2093.882 0 0 0 159.623-220.9 1915.097 1915.097 0 0 0 68.907-118.766c10.803-20.268 21.237-40.785 31.191-61.605 9.918-20.84 19.551-41.873 28.121-63.521-8.677 21.586-18.415 42.552-28.436 63.322-10.058 20.75-20.593 41.194-31.497 61.386a1911.508 1911.508 0 0 1-69.491 118.284 2090.527 2090.527 0 0 1-160.677 219.793 2099.703 2099.703 0 0 1-90.352 101.18l-11.675 12.287-11.899 12.067c-7.972 7.998-15.741 16.242-24.019 23.847-16.551 15.26-34.909 28.606-54.889 39.597-20.004 10.954-41.612 19.536-64.367 25.634-22.751 6.122-46.579 9.832-70.925 11.78-24.341 2.026-49.2 2.177-74.066 2.737-10.151 0.273-20.322 0.617-30.362 1.638 9.264-2.793 18.839-5.073 28.424-7.342 23.525-5.448 47.202-10.878 70.02-18.14z m-102.317-13.786c9.092-19.872 18.514-39.475 29.191-58.24 21.257-37.587 47.018-71.984 76.056-103.245 14.441-15.695 29.947-30.434 45.084-45.516l22.829-22.504 23.178-22.15 23.179-22.15 23.482-21.836 23.511-21.806c7.811-7.297 15.836-14.366 23.744-21.561 63.386-57.424 128.205-113.326 194.142-167.964 32.927-27.367 66.255-54.281 99.783-80.963 32.669-25.961 65.623-51.596 99.033-76.685L209.617 934.407c3.428-7.004 6.666-14.097 9.93-21.159z" fill="#C8E678" p-id="2851"></path></svg>