<?xml version="1.0" standalone="no"?><!DOCTYPE svg PUBLIC "-//W3C//DTD SVG 1.1//EN" "http://www.w3.org/Graphics/SVG/1.1/DTD/svg11.dtd"><svg t="1669525980918" class="icon" viewBox="0 0 1024 1024" version="1.1" xmlns="http://www.w3.org/2000/svg" p-id="2653" xmlns:xlink="http://www.w3.org/1999/xlink" width="200" height="200"><path d="M64 880a448 80 0 1 0 896 0 448 80 0 1 0-896 0Z" fill="#E8DABF" opacity=".3" p-id="2654"></path><path d="M87.215 846.713c-63.335-109.7 283.05-735.385 424.574-735.385S999.61 738.401 936.363 846.713s-785.813 109.7-849.148 0z" fill="#FAEBD2" p-id="2655"></path><path d="M455.995 219.992c0 4.415-3.579 3.997-7.995 3.997s-7.995 0.418-7.995-3.997S444.002 208 448 208s7.995 7.577 7.995 11.992zM487.995 219.992c0 4.415-3.579 3.997-7.995 3.997s-7.995 0.418-7.995-3.997S476.002 208 480 208s7.995 7.577 7.995 11.992zM551.995 219.992c0 4.415-3.579 3.997-7.995 3.997s-7.995 0.418-7.995-3.997S540.002 208 544 208s7.995 7.577 7.995 11.992zM583.995 219.992c0 4.415-3.579 3.997-7.995 3.997s-7.995 0.418-7.995-3.997S572.002 208 576 208s7.995 7.577 7.995 11.992zM519.995 219.992c0 4.415-3.579 3.997-7.995 3.997s-7.995 0.418-7.995-3.997S508.002 208 512 208c3.997 0 7.995 7.577 7.995 11.992zM439.995 251.992c0 4.415-3.579 3.997-7.995 3.997s-7.995 0.418-7.995-3.997S428.002 240 432 240s7.995 7.577 7.995 11.992zM407.995 251.992c0 4.415-3.579 3.997-7.995 3.997s-7.995 0.418-7.995-3.997S396.002 240 400 240s7.995 7.577 7.995 11.992zM471.995 251.992c0 4.415-3.579 3.997-7.995 3.997s-7.995 0.418-7.995-3.997S460.002 240 464 240s7.995 7.577 7.995 11.992zM535.995 251.992c0 4.415-3.579 3.997-7.995 3.997s-7.995 0.418-7.995-3.997S524.002 240 528 240s7.995 7.577 7.995 11.992zM567.995 251.992c0 4.415-3.579 3.997-7.995 3.997s-7.995 0.418-7.995-3.997S556.002 240 560 240s7.995 7.577 7.995 11.992zM599.995 251.992c0 4.415-3.579 3.997-7.995 3.997s-7.995 0.418-7.995-3.997S588.002 240 592 240s7.995 7.577 7.995 11.992zM631.995 251.992c0 4.415-3.579 3.997-7.995 3.997s-7.995 0.418-7.995-3.997S620.002 240 624 240s7.995 7.577 7.995 11.992zM503.995 251.992c0 4.415-3.579 3.997-7.995 3.997s-7.995 0.418-7.995-3.997S492.002 240 496 240s7.995 7.577 7.995 11.992z" fill="#E8DABF" p-id="2656"></path><path d="M775.345 440.438c6.115-0.504 2.035 2.249 3.301 5.954 0.291 3.705-1.4 8.362 3.258 11.666-8.169 4.275-6.282 6.521 3.215 8.77 10.327 2.249-3.048 4.501 3.17 8.79-7.376 1.905 1.646 5.43 3.123 8.9 2.359 3.47 7.921 6.886 3.075 8.573-9.172-0.258-2.604 3.793 3.026 8.052 15.128 4.26 5.026 8.729 2.976 9.306-12.033 2.457 8.296 3.061 2.924 4.901-9.272 1.84 0.532 4.915 2.871 12.315-7.209-4.449 4.727-6.768 2.351-5.038-8.02 1.73-4.154 7.509 2.312 19.255 10.479 2.85 7.181 5.826 2.272 8.362 2.367 2.536 14.417 4.631 2.232 5.72 0.489 8.023 3.272 8.451 2.191 8.369 2.156-0.082 2.739-0.673 2.149 5.309 6.227 0.962 5.665 3.077 2.106 5.646-8.672 2.569-11.048 5.593 2.063 8.372 0.484 2.791-1.853-7.046 3.993 2.32 4.069 4.468 5.724 6.451 1.928 9.406 6.942 2.955 1.821 6.882 1.881 15.238-4.269 0.327 4.781 3.252 1.834 6.473-2.521 3.222-0.062 6.74 1.786 8.252 0.93 4.846 4.093 9.135 3.424 11.379 4.254 4.314 6.785 12.042 3.222 9.515 7.65 0.479 5.501 2.125 1.533 4.778-2.137 2.653 0.389 6.314 1.48 10.821 5.52-4.253 5.635-3.57 1.427-1.098 0.458 2.472 2.397 6.733 1.372 9.635 4.945-5.443-1.133 5.655 1.317 6.148 7.645-1.499 6.176-3.465 1.261 9.311-1.044-1.224 1.153 3.168 0.609 6.892 3.205 3.725-8.203 6.782 0.595 2.89-7.048 1.751 3.658-8.565 1.146 4.247-2.301 6.198-4.38 5.473 1.088 9.861-6.175 6.702 5.253 11.046 0.522 11.399 4.763 0.353 3.857-3.283 0.507-12.541 4.14-0.671 7.245 8.582 0.969 7.898-4.846 2.25 1.32 7.335 0.462 10.005 3.145 2.67 10.494 2.925 0.446-4.486-4.938-0.376-10.418-2.474 0.431-8.347-0.33 2.606-4.06 1.688 0.416 7.392-8.397-5.947 2.539-8.485 0.4-1.185 0.769-0.613-6.446 15.872 0.384 10.095 6.124-2.642 16.23-2.913 0.721-0.891-9.928 2.022 2.137 6.337 0.657 12.867 8.012-1.93 3.119 11.247 1.119 7.89-4.177 10.634 6.907 8.769 0.461 5.883 9.31-2.886 0.244-6.793 0.394-0.244 0.495-3.987-6.03-3.428 0.171 6.772-9.743 9.614-1.644 7.542 0.154 4.16 7.839 6.146 5.388-1.372 0.257 1.662-0.977 5.999 2.145-9.593 0.188-5.785-3.549-1.61 0.632 0.145 0.068 3.207 0.688 3.061 2.394 7.428 0.05 11.041-11.782 5.89 0.19 9.829 0.046 11.327 8.012 1.498-5.24 0.555-0.025-3.321-3.097-6.344 1.874 10.268-0.269 2.894 11.751-5.18-2.069-4.017-0.246-0.68 5.299 3.337-0.201 8.848-0.321 12.363-0.119 1.52-0.251 7.353-0.396 8.282-0.145 1.512-0.302 8.374-0.473 0.633-0.341 6.682-0.733 2.845-1.178 3.641-0.89 7.333-1.991-8.506-3.31 10.406-0.807 10.085-1.747-3.544-2.814 4.667-1.067 7.814-2.262 2.26-3.581 6.35-1.319 10.024-2.761 9.864-4.323 6.708-1.562 4.784-3.243 3.198-5.04 3.605-1.797-1.216-3.709-8.021-5.732 2.172-2.023 7.898-4.158 0.643-6.399 7.435-2.242 5.191-4.59 11.749-7.042 5.977-2.452-5.879-5.007 7.787-7.66 2.924-2.654 6.301-5.406 5.755-8.253 3.105-2.847-2.562-5.789-1.824-8.821 5.088-3.032 2.617-6.155 2.006-9.365 4.028-3.209 0.424-6.505 11.614-9.883 3.457-3.378 11.137-6.839 4.589-10.377 5.368-3.539-0.628-7.155-8.95-10.846 1.408-6.04 13.337-12.277 4.26-18.695 5.017-6.418 3.014-13.016 11.167-19.776 4.541-6.76-1.418-13.682-10.144-20.748 4.065-7.066 6.438-14.276-0.847-21.611 3.589-7.335-7.749-14.797 7.38-22.365 3.112-7.569-6.077-15.245 6.834-23.011 2.634-7.766 5.918-15.621-0.398-23.548 2.156-7.927-6.213-15.925 7.261-23.977 1.678-8.052 14.37-16.156-8.354-24.296 1.199-8.14-4.045-16.315 5.313-24.507 0.72-8.192 5.977-16.401 2.026-24.609 0.24v1.206c7.933 0.148 15.852 1.825 23.746-0.511 7.893 6.51 15.761 5.45 23.593-0.778 7.832-13.235 15.627 0.2 23.374-1.045 7.748-8.826 15.448 4.154 23.09-1.312 7.642-10.069 15.226-8.128 22.741-1.579 7.515 1.232 14.96-13.071 22.326-1.846 7.365-1.077 14.651-3.437 21.845-2.112 7.194-9.605 14.297-5.486 21.298-2.378 7.001-8.46 13.9 8.32 20.686-2.644 6.786-9.953 13.459-3.337 20.009-2.91 6.549-4.958 12.975-5.612 19.265-3.176 4.325 4.107 8.586-1.967 12.78-2.337 4.194 3.386 8.32 3.274 12.376-2.463 4.056 0.418 8.041 10.262 11.951-1.138 3.911-1.155 7.747 5.839 11.505-4.164 3.758 5.875 7.439-3.256 11.037-5.567 3.599 4.841 7.116-4.089 10.549-0.234 3.432-0.472 6.78 1.161 10.038-3.31 3.259 0.518 6.429-3.21 9.507-2.992 3.078-9.286 6.064-8.46 8.954-5.961 2.89 1.432 5.685-11.631 8.38-0.84 2.695-2.291 5.291 3.583 7.784-2.516 2.493-1.39 4.884 6.451 7.168-4.785 2.284-1.168 4.462 4.094 6.53-4.34 2.068-0.067 4.026-10.814 5.87-3.459 1.844-3.772 3.576-14.484 5.19-9.13 1.614-10.135 3.111-3.577 4.488 0.833 2.753 4.679 5.024-0.194 6.784-8.794 0.511 2.867 0.995 4.044 1.453 3.006s0.889-4.289 1.294-10.276c0.811 2.808 1.517-0.439 2.121-4.815 0.605 2.149 1.107 6.75 1.511-7.597 0.404 6.246 1.897-11.725 0.917-7.505 0.361-4.346 10.857-12.046 0.24-10.4 9.433-0.227 0.293-4.471 0.097 2.555 6.523-7.804-6.694-6.103-0.044-4.557-1.258 1.546-4.622 2.938-0.183-5.486 1.944-6.188-8.249-14.074-0.32-10.921-0.404-6.319 6.552-10.136-0.211-10.592 3.129-0.456-8.232 2.449-0.244 9.572-18.587 0.492-6.796-3.876-0.588-7.245 6.263-3.369 2.361-5.74-0.719-1.256 0.164-7.81 2.438 2.701-1.824-10.578 1.12 6.423 13.204 4.838-1.101 2.795-0.013-1.094-9.198-7.844-0.597-12.818-10.651-4.974-4.457-8.172-0.628-2.162 11.367-7.964 0.889-11.437-1.113-9.645 0.338 3.859 5.592-9.962-1.196-0.13 6.184 4.612 2.554 2.165-1.279-1.561-15.558-3.726 3.72-8.732-1.359-9.239 1.376-2.409 7.481-14.768-2.958-9.968 1.931-7.286-5.878-5.991-1.596-5.013 12.537 0.978-0.968 1.64-1.672-6.911 3.35-9.013 1.114-9.073-1.748-6.58-6.06 1.911-2.64-3.474-1.822-6.353-6.857 3.202-1.17-10.577-3.862-10.143 2.182-6.161-3.083-8.589-2.038-9.783 1.917-1.194-2.247-1.156-2.108-2.386 1.029 0.101 0.304-3.36-2.176-6.611 2.086-3.251 0.296-6.29-2.244-5.345 8.665-2.409 1.316-4.83-2.31-7.187-11.041-2.357 7.203-4.65-2.375-6.803-4.979-6.512-0.945-7.99-4.942-11.049-4.987 0.782-4.913-2.262-5.189-7.207-5.878-2.472 5.256-5.42-2.685-8.602-1.93-3.182-4.832-6.599-2.743-10.01-13.344 0.003-5.803-8.628-5.657-8.894-3.908-5.741-3.353-5.33-2.912-5.886 11.301-0.556 4.618-2.078-2.966-11.685 7.9-0.238-7.1-3.077-3.019-6.302-4.414-3.225 0.931-6.838-3.071-8.624-1.794-7.073-5.786-8.407-3.121-8.812 0.873-0.405 3.632 0.118-3.171-3.239-0.107-6.551 7.422-6.72-3.219-6.871 7.515-0.151-6.404-0.286-3.266-6.768-6.025-6.91-6.301-11.368-3.313-13.584-5.699-2.216 6.067-2.19-3.357-0.133-6.807 0.382-9.151-1.648-4.087-4.825 6.383-3.177-0.74-7.503-4.148-11.713-5.8-2.571-11.938-5.728-4.207-8.738-4.086-3.01-6.844-5.874-4.265-7.859-3.109-6.14-12.035-10.321-4.32-12.954-0.975-2.633 6.391-3.72-4.374-3.673 6.577 0.889 1.602-2.293-4.425-6.184-4.759-3.892-3.924-8.493-4.475-10.443-5.601-3.404-6.274-7.316-4.522-10.496-6.921-3.176 4.486-5.624-4.565-6.099z" fill="#E8DABF" p-id="2657"></path></svg>