<?xml version="1.0" encoding="UTF-8"?>
<svg width="23px" height="24px" viewBox="0 0 23 24" version="1.1"
    xmlns="http://www.w3.org/2000/svg"
    xmlns:xlink="http://www.w3.org/1999/xlink">
    <title>推特备份 3</title>
    <g id="页面-1" stroke="none" stroke-width="1" fill="none" fill-rule="evenodd">
        <g id="Projects-&gt;-SPACE-ID顶部黑" transform="translate(-176.000000, -392.000000)">
            <g id="编组-9" transform="translate(128.000000, 392.000000)">
                <g id="推特备份-3" transform="translate(48.000000, 0.500000)">
                    <circle id="椭圆形" fill="#FFFFFF" cx="11.4922422" cy="11.4952383" r="9.792"></circle>
                    <path d="M11.4914145,0.015738342 C5.15156736,0.015738342 0.0123341969,5.1549715 0.0123341969,11.4948187 C0.0123341969,17.8355052 5.15156736,22.9747383 11.4914145,22.9747383 C17.8312617,22.9747383 22.9721503,17.8346891 22.9721503,11.4948187 C22.9721503,5.15494819 17.830399,0.015738342 11.4914145,0.015738342 Z M17.3471304,9.109475 C17.3535194,9.24264025 17.3551112,9.37582731 17.3551112,9.51139114 C17.3551112,13.5999372 14.3168196,18.3208383 8.76096994,18.3208383 C7.05441811,18.3208383 5.46749041,17.8096774 4.13095351,16.9252962 C5.73392867,17.1229341 7.34839956,16.6606752 8.60386242,15.6446028 C7.28248023,15.6222741 6.16604649,14.7307189 5.78087685,13.493876 C5.96668021,13.5337362 6.15568895,13.5504827 6.34866627,13.5504827 C6.62459112,13.5504827 6.89172842,13.5129993 7.1461096,13.4452283 C5.76334535,13.1565255 4.72266339,11.9061415 4.72266339,10.4085285 L4.72344838,10.3662479 C5.14003322,10.6062005 5.60973163,10.7388361 6.09029472,10.7522244 C5.2438402,10.1687182 4.74054348,9.20452059 4.74577706,8.17644603 C4.74577706,7.61027021 4.89649561,7.07915738 5.15567396,6.62141955 C6.64452121,8.49462964 8.87180652,9.72750393 11.3797921,9.85428022 C11.3280362,9.62259862 11.3018297,9.38594224 11.3016417,9.14855018 C11.3016417,7.43879296 12.6541183,6.05203834 14.3232086,6.05203834 C15.1924133,6.05203834 15.9779073,6.43081902 16.5273584,7.03371504 C17.2058118,6.89494382 17.8555304,6.64114793 18.4484094,6.28330585 C18.2260387,6.99560547 17.7528683,7.60307869 17.1166697,7.99304126 C17.7170613,7.92050247 18.302804,7.7564492 18.853531,7.50658578 C18.449126,8.12521614 17.93894,8.66779806 17.3463454,9.109475 L17.3471304,9.109475 Z" id="形状" fill="#2DA9E3" fill-rule="nonzero"></path>
                </g>
            </g>
        </g>
    </g>
</svg>