<?xml version="1.0" standalone="no"?><!DOCTYPE svg PUBLIC "-//W3C//DTD SVG 1.1//EN" "http://www.w3.org/Graphics/SVG/1.1/DTD/svg11.dtd"><svg t="1669525933920" class="icon" viewBox="0 0 1024 1024" version="1.1" xmlns="http://www.w3.org/2000/svg" p-id="2362" xmlns:xlink="http://www.w3.org/1999/xlink" width="200" height="200"><path d="M64 880a448 80 0 1 0 896 0 448 80 0 1 0-896 0Z" fill="#286432" opacity=".5" p-id="2363"></path><path d="M512.789 111.328c-66.491 0-178.201 138.109-271.396 295.93 55.644 57.763 159.079 127.76 272.859 189.618 114.274-58.817 218.107-125.695 274.328-181.582-94.05-161.114-208.243-303.966-275.791-303.966z" fill="#FFB90F" p-id="2364"></path><path d="M788.58 415.295c-56.221 55.887-160.055 122.765-274.328 181.582 152.444 82.878 323.46 151.147 423.003 155.8-20.428-88.75-79.029-218.073-148.675-337.382z" fill="#419646" p-id="2365"></path><path d="M241.393 407.259C136.225 585.355 54.635 788.552 88.215 846.713c63.335 109.7 785.902 108.312 849.149 0 10.706-18.334 9.674-51.533-0.109-94.036-173.841-8.127-565.666-210.263-695.862-345.418z" fill="#419646" p-id="2366"></path><path d="M947.276 761.154l0.141 0.007-2.366-10.278-1.36-5.914-0.047-0.002c-20.982-86.058-76.02-210.131-148.155-333.705l-5.214-8.932-7.335 7.291c-52.428 52.117-150.18 116.954-268.588 178.199-116.026-63.396-215.222-132.157-267.197-186.112l-7.3-7.578-5.351 9.061c-54.216 91.812-100.115 186.288-129.244 266.025-15.37 42.075-25.455 78.457-29.975 108.136-5.035 33.061-3.016 57.743 6.002 73.361 36.146 62.609 251.218 85.322 424.409 85.749 1.771 0.004 3.524 0.006 5.293 0.006 101.358 0 198.649-7.174 274.463-20.261 88.991-15.361 142.426-37.386 158.819-65.46 10.467-17.923 11.465-48.04 3.005-89.593z m-71.489-158.756a141.068 141.068 0 0 1-4.046 5.346 189.705 189.705 0 0 1-13.483 15.125l-3.565 3.595-3.641 3.518c-2.446 2.326-4.891 4.637-7.406 6.88a293.074 293.074 0 0 1-7.528 6.705c-2.508 2.224-5.081 4.379-7.661 6.508-5.133 4.295-10.907 7.865-16.507 11.447a99.84 99.84 0 0 0-8.01 5.741 104.502 104.502 0 0 0-3.699 3.187 141.123 141.123 0 0 0-3.521 3.398 226.52 226.52 0 0 0-13.332 14.823l-3.244 4.025-3.266 4.182c-1.081 1.479-2.203 2.874-3.321 4.422l-1.709 2.317c-0.261 0.385-0.532 0.757-0.803 1.135-46.834-16.642-97.977-37.953-150.837-62.977 0.488-0.055 0.974-0.112 1.465-0.163 3.234-0.338 6.42-0.833 9.591-1.397 12.709-2.214 25.032-5.786 36.949-10.238l4.449-1.722c1.476-0.588 2.916-1.248 4.377-1.87 2.902-1.28 5.792-2.594 8.597-4.064 5.657-2.855 11.107-6.099 16.437-9.525 10.633-6.913 20.794-14.488 31.119-21.698 20.607-14.483 40.28-30.363 58.054-48.33 2.21-2.257 4.371-4.57 6.551-6.846 2.151-2.314 4.238-4.698 6.35-7.037 2.073-2.387 4.083-4.839 6.116-7.247a348.274 348.274 0 0 0 5.798-7.517l2.735-3.891c0.9-1.304 1.844-2.56 2.672-3.924 1.482-2.384 3.037-4.688 4.409-7.132 18.564 35.437 35.342 70.163 49.91 103.224z m-90.351 107.369c0.34-0.032 0.678-0.058 1.021-0.09 0.981-0.118 1.94-0.292 2.919-0.441 1.967-0.298 3.852-0.743 5.74-1.21 7.524-1.936 14.507-4.981 20.957-8.694a59.052 59.052 0 0 0 4.694-2.978 53.147 53.147 0 0 0 4.389-3.35c2.821-2.359 5.392-4.988 7.802-7.77 4.792-5.599 9.084-11.577 13.694-17.15 2.285-2.809 4.543-5.63 6.724-8.514 1.1-1.432 2.17-2.889 3.22-4.361 1.053-1.469 2.121-2.92 3.138-4.417a278.756 278.756 0 0 0 5.928-9.081l2.793-4.652 2.693-4.711c3.4-6.311 6.612-12.726 9.223-19.43 20.974 48.662 36.964 93.408 46.535 131.03-37.483-3.355-86.154-15.308-141.47-34.181z m-254.08-112.759c110.186-57.722 202.002-118.424 255.438-168.853a1995.781 1995.781 0 0 1 35.58 64.355l-1.534 1.839c-1.848 2.36-3.984 4.529-5.986 6.761-0.985 1.127-2.099 2.164-3.157 3.235l-3.197 3.185c-8.696 8.343-18.034 16.013-27.756 23.165l-7.324 5.317-7.453 5.141-7.545 5.006c-2.526 1.65-5.099 3.241-7.64 4.861-5.106 3.218-10.248 6.373-15.463 9.413l-3.89 2.307-3.933 2.241c-2.618 1.497-5.233 2.994-7.893 4.421-10.548 5.849-21.626 10.757-32.654 15.557a384.793 384.793 0 0 0-16.297 7.576c-2.666 1.355-5.333 2.69-7.969 4.095l-7.874 4.289a1427.938 1427.938 0 0 0-31.267 18.04l-15.748 9.436c-2.245 1.423-4.52 2.749-6.801 4.156a1981.021 1981.021 0 0 1-11.938-5.855l-0.166-0.082c-2.142-1.06-4.287-2.127-6.433-3.199-0.942-0.47-1.885-0.944-2.828-1.417-1.329-0.666-2.659-1.333-3.989-2.003-1.105-0.557-2.207-1.115-3.31-1.673-1.195-0.605-2.39-1.21-3.585-1.818l-3.28-1.673a2301.628 2301.628 0 0 1-6.713-3.444c-1.464-0.754-2.928-1.511-4.392-2.271l-2.289-1.188a2326.692 2326.692 0 0 1-6.674-3.486 2126.572 2126.572 0 0 1-14.04-7.434z m-25.62 323.454c-215.629-0.531-384.471-32.502-410.593-77.749-14.31-24.784-5.38-84.45 25.145-168.006 0.823-2.253 1.662-4.52 2.512-6.797 3.143 7.763 6.72 15.38 10.777 22.727 1.617 2.949 3.208 5.936 4.903 8.851 1.752 2.87 3.557 5.712 5.342 8.579l2.703 4.291c0.889 1.444 1.912 2.772 2.863 4.166 1.941 2.754 3.867 5.531 5.853 8.266 1.932 2.786 4.044 5.405 6.122 8.066l6.324 7.922c2.129 2.627 4.38 5.131 6.609 7.667l6.729 7.583c2.314 2.452 4.68 4.854 7.031 7.276l3.534 3.63c1.179 1.21 2.347 2.435 3.58 3.581l7.373 6.925c2.476 2.289 4.889 4.665 7.456 6.842l7.676 6.58c2.559 2.195 5.142 4.366 7.81 6.415 2.637 2.093 5.326 4.118 7.989 6.178l4.017 3.062c1.352 1.002 2.742 1.947 4.112 2.922 10.949 7.82 22.294 15.051 33.904 21.778l8.767 4.937 4.38 2.465c1.464 0.814 2.96 1.569 4.442 2.35l8.906 4.644c2.965 1.55 5.924 3.107 8.942 4.55l9.002 4.411c3.002 1.463 5.985 2.962 9.023 4.347l9.072 4.227 4.534 2.111c1.507 0.712 3.021 1.408 4.558 2.054 6.116 2.653 12.204 5.359 18.334 7.959l18.521 7.467 18.707 6.943c6.271 2.209 12.584 4.297 18.868 6.447a755.278 755.278 0 0 0 76.949 20.286 737.954 737.954 0 0 0 21.51 4.034 2083.8 2083.8 0 0 1-14.286 0.013z m276.994-20.021c-56.093 9.682-124.146 16.089-196.959 18.7-28.225-4.405-56.111-10.541-83.488-18.276a736.719 736.719 0 0 1-73.545-24.77c-5.988-2.426-11.997-4.786-17.956-7.259l-17.748-7.72-17.512-8.206c-5.784-2.84-11.518-5.777-17.273-8.656a107.898 107.898 0 0 1-4.27-2.252l-4.241-2.306-8.476-4.607c-2.851-1.484-5.573-3.209-8.348-4.828l-8.288-4.918a731.786 731.786 0 0 1-32.26-20.943c-10.56-7.223-20.976-14.594-31.315-22.039-1.297-0.925-2.617-1.82-3.894-2.769l-3.828-2.85c-2.567-1.881-5.107-3.798-7.7-5.646-1.281-0.944-2.608-1.833-3.851-2.822l-3.783-2.903-7.616-5.755c-2.597-1.854-5.027-3.894-7.533-5.855l-7.487-5.927c-4.974-3.97-9.759-8.151-14.723-12.167l-14.358-12.619-6.997-6.519c-2.356-2.159-4.759-4.288-6.976-6.573-4.499-4.516-9.255-8.87-13.584-13.579l-6.695-6.948c-2.206-2.343-4.285-4.785-6.464-7.171l-3.267-3.591-1.638-1.801-1.554-1.857c-2.082-2.474-4.151-4.971-6.285-7.445-1.045-1.25-2.16-2.465-3.153-3.752l-3.021-3.854c-0.19-0.234-0.378-0.472-0.567-0.707 15.389-40.151 34.772-83.666 57.11-128.42a149.938 149.938 0 0 0 2.909 7.859l2.703 6.323c0.969 2.073 2.004 4.108 3.009 6.172 0.511 1.026 1.003 2.069 1.543 3.079l1.668 2.995c1.124 1.991 2.211 4.022 3.378 5.992 9.424 15.703 20.543 30.328 32.592 43.983l4.583 5.059c1.526 1.692 3.055 3.384 4.635 5.013 3.152 3.27 6.283 6.587 9.538 9.743 3.229 3.192 6.443 6.414 9.795 9.462l4.981 4.639 5.058 4.54 5.082 4.518 5.179 4.388 5.186 4.386 5.255 4.288 5.285 4.255 5.355 4.151 5.358 4.152 5.418 4.061c28.988 21.549 59.723 40.495 91.567 57.11 31.887 16.552 64.426 31.608 97.274 45.792a1404.703 1404.703 0 0 0 49.656 20.314 1318.39 1318.39 0 0 0 50.413 18.273c33.89 11.366 68.261 21.295 103.066 29.413 17.414 4.009 34.935 7.559 52.556 10.533 17.622 2.959 35.339 5.401 53.147 6.96 17.802 1.575 35.681 2.395 53.549 2.11 11.629-0.222 23.254-0.914 34.803-2.202-25.873 12.568-64.943 23.609-114.998 32.249z m147.725-57.762c-4.154 7.114-11.997 13.979-23.235 20.487-14.713 1.103-29.479 1.153-44.19 0.443-17.569-0.808-35.077-2.671-52.462-5.288-34.779-5.243-69.102-13.25-102.876-23.024-33.806-9.677-67.102-21.114-99.833-33.932a1294.756 1294.756 0 0 1-48.785-19.96c-16.114-7-32.088-14.307-47.91-21.911-3.941-1.934-7.905-3.816-11.823-5.791l-11.764-5.902c-3.904-1.999-7.776-4.064-11.663-6.094-3.881-2.042-7.724-4.156-11.586-6.229a1247.516 1247.516 0 0 1-45.588-26.129l-11.257-6.726c-3.729-2.277-7.437-4.587-11.181-6.834l-11.144-6.872-11.103-6.919c-14.774-9.259-29.448-18.637-43.927-28.276-28.941-19.281-57.095-39.7-83.136-62.476-13.006-11.397-25.339-23.492-36.692-36.506-1.418-1.627-2.754-3.308-4.141-4.965l-2.068-2.5-1.967-2.562c-1.303-1.716-2.647-3.419-3.929-5.161l-3.712-5.316a195.264 195.264 0 0 1-7.189-11.578c17.086-33.8 35.805-68.227 55.732-102.378 53.096 52.266 146.048 116.522 254.186 176.37l-0.067 0.035 13.284 7.222 0.648 0.349c4.622 2.512 9.269 5.015 13.94 7.508l0.641 0.341c4.436 2.365 8.894 4.72 13.37 7.065l2.244 1.173c3.833 2.002 7.68 3.996 11.54 5.982 1.179 0.607 2.357 1.214 3.535 1.818a2128.78 2128.78 0 0 0 10.01 5.09c48.327 24.44 96.445 46.416 142.401 65.035 1.013 0.41 2.028 0.826 3.038 1.233 2.79 1.124 5.566 2.228 8.338 3.326a1413.87 1413.87 0 0 0 12.238 4.789c2.272 0.877 4.532 1.742 6.788 2.6 1.199 0.456 2.411 0.931 3.606 1.382 1.171 0.442 2.331 0.871 3.497 1.307 0.646 0.242 1.292 0.484 1.937 0.724a1326.6 1326.6 0 0 0 10.111 3.72c0.93 0.338 1.851 0.667 2.777 1.001 2.429 0.875 4.845 1.738 7.249 2.587 0.832 0.294 1.678 0.604 2.507 0.895 64.508 22.659 118.261 35.59 159.915 38.48 10.596 49.24 5.777 71.952-0.304 82.367z" fill="#286432" p-id="2367"></path><path d="M455.995 203.992c0 4.415-3.579 3.997-7.995 3.997s-7.995 0.418-7.995-3.997S444.002 192 448 192s7.995 7.577 7.995 11.992zM487.995 203.992c0 4.415-3.579 3.997-7.995 3.997s-7.995 0.418-7.995-3.997S476.002 192 480 192s7.995 7.577 7.995 11.992zM551.995 203.992c0 4.415-3.579 3.997-7.995 3.997s-7.995 0.418-7.995-3.997S540.002 192 544 192s7.995 7.577 7.995 11.992zM583.995 203.992c0 4.415-3.579 3.997-7.995 3.997s-7.995 0.418-7.995-3.997S572.002 192 576 192s7.995 7.577 7.995 11.992zM519.995 203.992c0 4.415-3.579 3.997-7.995 3.997s-7.995 0.418-7.995-3.997S508.002 192 512 192c3.997 0 7.995 7.577 7.995 11.992zM439.995 235.992c0 4.415-3.579 3.997-7.995 3.997s-7.995 0.418-7.995-3.997S428.002 224 432 224s7.995 7.577 7.995 11.992zM407.995 235.992c0 4.415-3.579 3.997-7.995 3.997s-7.995 0.418-7.995-3.997S396.002 224 400 224s7.995 7.577 7.995 11.992zM471.995 235.992c0 4.415-3.579 3.997-7.995 3.997s-7.995 0.418-7.995-3.997S460.002 224 464 224s7.995 7.577 7.995 11.992zM535.995 235.992c0 4.415-3.579 3.997-7.995 3.997s-7.995 0.418-7.995-3.997S524.002 224 528 224s7.995 7.577 7.995 11.992zM567.995 235.992c0 4.415-3.579 3.997-7.995 3.997s-7.995 0.418-7.995-3.997S556.002 224 560 224s7.995 7.577 7.995 11.992zM599.995 235.992c0 4.415-3.579 3.997-7.995 3.997s-7.995 0.418-7.995-3.997S588.002 224 592 224s7.995 7.577 7.995 11.992zM631.995 235.992c0 4.415-3.579 3.997-7.995 3.997s-7.995 0.418-7.995-3.997S620.002 224 624 224s7.995 7.577 7.995 11.992zM503.995 235.992c0 4.415-3.579 3.997-7.995 3.997s-7.995 0.418-7.995-3.997S492.002 224 496 224s7.995 7.577 7.995 11.992z" fill="#FFFFFF" opacity=".5" p-id="2368"></path><path d="M288 478.07a32 10.667 0 1 0 64 0 32 10.667 0 1 0-64 0Z" fill="#E6413C" p-id="2369"></path><path d="M672 478.07a32 10.667 0 1 0 64 0 32 10.667 0 1 0-64 0Z" fill="#E6413C" p-id="2370"></path><path d="M545 489c0-18.748-15.252-34-34-34a8 8 0 0 0 0 16c9.925 0 18 8.075 18 18s-8.075 18-18 18a8 8 0 0 0 0 16c9.925 0 18 8.075 18 18s-8.075 18-18 18a8 8 0 0 0 0 16c18.748 0 34-15.252 34-34 0-10.419-4.711-19.758-12.114-26 7.403-6.242 12.114-15.581 12.114-26zM457.657 404.03l-20.993 20.993c-15.745-9.607-33.804-14.841-52.664-15.077V384a8 8 0 0 0-16 0v26.957a102.829 102.829 0 0 0-37.66 13.069l-19.997-19.997a8 8 0 0 0-11.313 0 7.998 7.998 0 0 0 0 11.313l17.959 17.959a106.227 106.227 0 0 0-7.861 7.111 7.998 7.998 0 0 0 0 11.313 8 8 0 0 0 11.313 0c16.636-16.636 38.735-25.797 62.226-25.797s45.59 9.162 62.226 25.797c1.562 1.562 3.609 2.343 5.657 2.343s4.095-0.781 5.657-2.343a7.998 7.998 0 0 0 0-11.313 106.351 106.351 0 0 0-6.409-5.896l19.174-19.174a7.998 7.998 0 0 0 0-11.313 8.003 8.003 0 0 0-11.315 0.001zM724.97 404.03a8 8 0 0 0-11.313 0l-20.993 20.993c-15.745-9.607-33.804-14.841-52.664-15.077V384a8 8 0 0 0-16 0v26.957a102.829 102.829 0 0 0-37.66 13.069l-19.997-19.997a8 8 0 0 0-11.313 0 7.998 7.998 0 0 0 0 11.313l17.959 17.959a106.227 106.227 0 0 0-7.861 7.111 7.998 7.998 0 0 0 0 11.313 8 8 0 0 0 11.313 0c16.636-16.636 38.735-25.797 62.226-25.797s45.59 9.162 62.226 25.797c1.562 1.562 3.609 2.343 5.657 2.343s4.095-0.781 5.657-2.343a7.998 7.998 0 0 0 0-11.313 106.351 106.351 0 0 0-6.409-5.896l19.174-19.174a7.998 7.998 0 0 0-0.002-11.312z" fill="#5A1E14" p-id="2371"></path></svg>